
<svg xmlns="http://www.w3.org/2000/svg" width="161" height="164" viewBox="0 0 161 164" fill="none">
<path d="M161 16.0458L128.461 48.515V129.905C128.461 132.23 127.712 134.561 125.906 136.024C122.001 139.188 115.842 141.488 109.323 136.123C107.461 134.59 106.657 132.173 106.657 129.762V71.1679L73.7557 103.448V163.922H161V16.0458Z" fill="#B22234" fill-opacity="0.7"/>
<path d="M146.489 0L113.453 32.9411H37.9045C33.4197 32.9411 28.5998 33.9004 26.1918 37.6838C24.2997 40.6568 23.4364 44.5385 25.6006 48.7431C28.1449 53.6862 34.2604 55.1221 39.8198 55.1221H91.4611L58.1425 88.3922H0V0H146.489Z" fill="#3C3B6E" fill-opacity="0.7"/>
</svg>